<?xml version="1.0" encoding="utf-8"?>
<!-- Generator: Adobe Illustrator 13.0.0, SVG Export Plug-In  -->
<!DOCTYPE svg PUBLIC "-//W3C//DTD SVG 1.1//EN" "http://www.w3.org/Graphics/SVG/1.1/DTD/svg11.dtd" [
	<!ENTITY ns_flows "http://ns.adobe.com/Flows/1.0/">
]>
<svg version="1.1"
	 xmlns="http://www.w3.org/2000/svg" xmlns:xlink="http://www.w3.org/1999/xlink" xmlns:a="http://ns.adobe.com/AdobeSVGViewerExtensions/3.0/"
	 x="0px" y="0px" width="563px" height="563px" viewBox="85.126 85.126 563 563" enable-background="new 85.126 85.126 563 563"
	 xml:space="preserve">
<defs>
</defs>
<rect x="57.001" y="57.001" width="618.75" height="618.75"/>
<line fill="none" stroke="#0000FF" stroke-opacity="0.5" x1="205.693" y1="426.962" x2="732.522" y2="700.912"/>
<line fill="none" stroke="#0000FF" stroke-opacity="0.5" x1="171.45" y1="361.109" x2="698.279" y2="635.059"/>
<line fill="none" stroke="#0000FF" stroke-opacity="0.5" x1="137.206" y1="295.255" x2="664.036" y2="569.206"/>
<line fill="none" stroke="#0000FF" stroke-opacity="0.5" x1="102.962" y1="229.401" x2="629.791" y2="503.352"/>
<line fill="none" stroke="#0000FF" stroke-opacity="0.5" x1="68.718" y1="163.547" x2="595.547" y2="437.498"/>
<line fill="none" stroke="#0000FF" stroke-opacity="0.5" x1="34.474" y1="97.694" x2="561.303" y2="371.645"/>
<line fill="none" stroke="#0000FF" stroke-opacity="0.5" x1="0.23" y1="31.84" x2="527.06" y2="305.791"/>
<line fill="none" stroke="#0000FF" stroke-opacity="0.5" x1="426.962" y1="205.693" x2="700.912" y2="732.521"/>
<line fill="none" stroke="#0000FF" stroke-opacity="0.5" x1="361.108" y1="171.45" x2="635.059" y2="698.279"/>
<line fill="none" stroke="#0000FF" stroke-opacity="0.5" x1="295.255" y1="137.206" x2="569.206" y2="664.035"/>
<line fill="none" stroke="#0000FF" stroke-opacity="0.5" x1="229.401" y1="102.962" x2="503.352" y2="629.791"/>
<line fill="none" stroke="#0000FF" stroke-opacity="0.5" x1="163.547" y1="68.718" x2="437.498" y2="595.548"/>
<line fill="none" stroke="#0000FF" stroke-opacity="0.5" x1="97.694" y1="34.475" x2="371.644" y2="561.304"/>
<line fill="none" stroke="#0000FF" stroke-opacity="0.5" x1="31.84" y1="0.23" x2="305.791" y2="527.06"/>
<line fill="none" stroke="#0000FF" stroke-width="3" x1="102.962" y1="229.401" x2="629.791" y2="503.352"/>
<line fill="none" stroke="#0000FF" stroke-width="3" x1="503.352" y1="629.791" x2="229.401" y2="102.962"/>
<polyline fill="none" stroke="#0000FF" stroke-width="3" stroke-linecap="round" points="228.34,115.914 229.401,102.962 
	249.712,127.028 "/>
<polyline fill="none" stroke="#0000FF" stroke-width="3" stroke-linecap="round" points="605.725,483.041 629.791,503.352 
	616.839,504.413 "/>
<g>
	<path fill="#0000FF" d="M587.361,469.731c-0.486-0.752-0.963-1.48-1.431-2.185s-0.917-1.368-1.349-1.991
		c-0.43-0.621-0.737-1.043-0.921-1.262c-0.183-0.218-0.347-0.389-0.487-0.509c-0.143-0.122-0.295-0.225-0.46-0.31
		c-0.183-0.096-0.326-0.141-0.43-0.135c-0.104,0.006-0.19,0.066-0.259,0.18c-0.066,0.113-0.131,0.313-0.191,0.598l-1.136-1
		c0.118-0.539,0.322-0.881,0.613-1.027c0.29-0.146,0.778-0.039,1.463,0.316c0.269,0.14,0.521,0.291,0.755,0.458
		c0.235,0.167,0.464,0.354,0.685,0.56c0.222,0.207,0.446,0.443,0.669,0.703c0.227,0.264,0.484,0.596,0.773,0.995
		c0.291,0.402,0.618,0.881,0.982,1.44c0.361,0.559,0.725,1.129,1.087,1.718l0.13,0.067c0.223-0.738,0.408-1.266,0.557-1.584
		c0.146-0.318,0.299-0.533,0.457-0.645c0.156-0.111,0.344-0.148,0.559-0.117c0.219,0.035,0.551,0.168,1.002,0.402
		c0.406,0.211,0.768,0.438,1.081,0.676l0.704,2.084l-0.91-0.474c-0.24-0.392-0.487-0.651-0.738-0.782
		c-0.078-0.041-0.154-0.072-0.227-0.089c-0.074-0.021-0.15-0.019-0.231,0.003c-0.08,0.021-0.176,0.094-0.288,0.221
		c-0.111,0.125-0.225,0.289-0.339,0.496c-0.114,0.205-0.228,0.425-0.341,0.656l-0.309,0.646c0.588,0.913,1.109,1.708,1.563,2.385
		c0.455,0.681,0.84,1.25,1.158,1.707c0.317,0.461,0.577,0.826,0.783,1.105c0.202,0.275,0.383,0.498,0.539,0.664
		c0.156,0.167,0.296,0.299,0.42,0.399c0.125,0.099,0.252,0.183,0.383,0.251c0.234,0.121,0.413,0.147,0.541,0.082
		c0.125-0.069,0.229-0.313,0.313-0.738l1.136,0.998c-0.138,0.586-0.356,0.936-0.654,1.049c-0.298,0.114-0.785-0.005-1.461-0.356
		c-0.372-0.194-0.724-0.427-1.054-0.694c-0.33-0.271-0.666-0.602-1.01-0.994c-0.344-0.395-0.752-0.943-1.225-1.644
		c-0.844-1.247-1.45-2.181-1.818-2.804l-0.129-0.067c-0.246,0.814-0.447,1.388-0.6,1.718c-0.154,0.331-0.307,0.556-0.457,0.674
		c-0.15,0.117-0.335,0.158-0.551,0.125c-0.217-0.035-0.55-0.167-1-0.401c-0.407-0.212-0.769-0.437-1.082-0.675l-0.703-2.084
		l0.909,0.473c0.241,0.391,0.487,0.652,0.738,0.783c0.122,0.063,0.231,0.096,0.333,0.102c0.1,0.004,0.212-0.052,0.335-0.167
		c0.122-0.116,0.269-0.323,0.435-0.622C586.841,470.812,587.07,470.352,587.361,469.731z"/>
	<path fill="#0000FF" d="M595.408,464.528l0.338,0.65l-1.943,2.043l-1.197-1.115l0.528-2.761L595.408,464.528z"/>
	<path fill="#0000FF" d="M600.323,467.085l0.338,0.65l-1.943,2.041l-1.196-1.114l0.527-2.761L600.323,467.085z"/>
</g>
<g>
	<path fill="#0000FF" d="M264.369,142.028c-0.36-0.669-0.663-1.174-0.906-1.515c-0.245-0.343-0.507-0.639-0.787-0.894
		c-0.281-0.252-0.606-0.476-0.979-0.67c-0.875-0.455-1.481-0.516-1.814-0.18c-0.336,0.334-0.392,1.025-0.168,2.074
		c0.222,1.048,0.64,2.162,1.253,3.34c0.459,0.883,0.974,1.631,1.543,2.238c0.57,0.61,1.201,1.094,1.894,1.453
		c0.789,0.41,1.393,0.617,1.814,0.619c0.42-0.001,0.785-0.154,1.092-0.462l1.206,1.206c-0.346,0.479-0.825,0.709-1.436,0.695
		c-0.612-0.015-1.393-0.27-2.346-0.766c-1.256-0.652-2.403-1.521-3.441-2.606c-1.036-1.081-1.924-2.333-2.664-3.754
		c-0.482-0.927-0.838-1.856-1.068-2.784c-0.231-0.93-0.23-1.639,0-2.133c0.23-0.493,0.682-0.718,1.358-0.669
		c0.676,0.048,1.521,0.336,2.535,0.862c1.152,0.6,2.281,1.281,3.386,2.046l0.891,2.606L264.369,142.028z"/>
	<path fill="#0000FF" d="M279.418,154.85c-0.279,0.521-0.657,0.813-1.129,0.884c-0.472,0.07-1.089-0.094-1.852-0.49
		c-1.811-0.941-3.192-2.324-4.142-4.152c-0.302-0.58-0.546-1.154-0.732-1.719l-1.974-5.947l-2.184-1.135l-0.271-0.796
		c0.506,0.257,0.874,0.42,1.102,0.486c0.229,0.069,0.4,0.089,0.516,0.062c0.114-0.029,0.187-0.119,0.217-0.268
		s0.022-0.363-0.021-0.642c-0.044-0.279-0.154-0.782-0.332-1.515l1.793,0.933l0.954,2.839l3.951,2.055l0.397,1.164l-3.95-2.055
		l1.465,4.441c0.284,0.861,0.507,1.49,0.669,1.888c0.163,0.397,0.311,0.726,0.446,0.985c0.56,1.076,1.285,1.843,2.177,2.307
		c0.381,0.199,0.711,0.266,0.987,0.197c0.279-0.065,0.531-0.297,0.754-0.693L279.418,154.85z"/>
	<path fill="#0000FF" d="M279.191,142.851l0.338,0.65l-1.944,2.043l-1.196-1.115l0.528-2.76L279.191,142.851z"/>
	<path fill="#0000FF" d="M284.106,145.407l0.338,0.648L282.5,148.1l-1.196-1.115l0.528-2.761L284.106,145.407z"/>
</g>
<line fill="none" stroke="#FF0000" stroke-opacity="0.5" x1="82.783" y1="607.782" x2="551.533" y2="476.532"/>
<line fill="none" stroke="#FF0000" stroke-opacity="0.5" x1="99.189" y1="549.188" x2="567.939" y2="417.938"/>
<line fill="none" stroke="#FF0000" stroke-opacity="0.5" x1="115.595" y1="490.595" x2="584.345" y2="359.345"/>
<line fill="none" stroke="#FF0000" stroke-opacity="0.5" x1="132.001" y1="432.001" x2="600.751" y2="300.751"/>
<line fill="none" stroke="#FF0000" stroke-opacity="0.5" x1="148.408" y1="373.407" x2="617.158" y2="242.157"/>
<line fill="none" stroke="#FF0000" stroke-opacity="0.5" x1="164.814" y1="314.814" x2="633.564" y2="183.563"/>
<line fill="none" stroke="#FF0000" stroke-opacity="0.5" x1="181.22" y1="256.22" x2="649.97" y2="124.97"/>
<line fill="none" stroke="#FF0000" stroke-opacity="0.5" x1="607.783" y1="82.783" x2="476.533" y2="551.532"/>
<line fill="none" stroke="#FF0000" stroke-opacity="0.5" x1="549.189" y1="99.188" x2="417.938" y2="567.938"/>
<line fill="none" stroke="#FF0000" stroke-opacity="0.5" x1="490.595" y1="115.595" x2="359.345" y2="584.345"/>
<line fill="none" stroke="#FF0000" stroke-opacity="0.5" x1="432.001" y1="132.001" x2="300.751" y2="600.751"/>
<line fill="none" stroke="#FF0000" stroke-opacity="0.5" x1="373.408" y1="148.407" x2="242.158" y2="617.157"/>
<line fill="none" stroke="#FF0000" stroke-opacity="0.5" x1="314.814" y1="164.813" x2="183.564" y2="633.563"/>
<line fill="none" stroke="#FF0000" stroke-opacity="0.5" x1="256.22" y1="181.22" x2="124.97" y2="649.97"/>
<line fill="none" stroke="#FF0000" stroke-width="3" x1="132.001" y1="432.001" x2="600.751" y2="300.751"/>
<line fill="none" stroke="#FF0000" stroke-width="3" x1="300.751" y1="600.751" x2="432.001" y2="132.001"/>
<polyline fill="none" stroke="#FF0000" stroke-width="3" stroke-linecap="round" points="417.882,151.132 432.001,132.001 
	436.898,145.808 "/>
<polyline fill="none" stroke="#FF0000" stroke-width="3" stroke-linecap="round" points="586.946,295.854 600.751,300.751 
	581.62,314.871 "/>
<g>
	<path fill="#FF0000" d="M570.378,295.306c0.066-0.703,0.121-1.377,0.163-2.021s0.065-1.24,0.071-1.788
		c0.007-0.548-0.017-0.899-0.068-1.054c-0.053-0.154-0.128-0.25-0.226-0.288s-0.235-0.032-0.414,0.019
		c-0.198,0.055-0.39,0.15-0.573,0.284c-0.186,0.134-0.402,0.338-0.653,0.611c-0.249,0.274-0.596,0.689-1.037,1.247l-0.747-0.35
		c0.842-1.059,1.599-1.886,2.268-2.481s1.375-0.996,2.117-1.204c0.292-0.082,0.539-0.12,0.741-0.116
		c0.203,0.004,0.37,0.051,0.501,0.139c0.131,0.089,0.232,0.224,0.303,0.403c0.071,0.18,0.116,0.438,0.135,0.774
		c0.019,0.338,0.004,0.766-0.041,1.286c-0.047,0.52-0.109,1.064-0.191,1.633l0.142-0.04c1.258-1.522,2.201-2.642,2.833-3.36
		c0.629-0.718,1.145-1.265,1.545-1.642c0.399-0.376,0.765-0.665,1.093-0.865c0.329-0.2,0.738-0.369,1.228-0.506
		c0.441-0.124,0.788-0.169,1.039-0.135l-1.279,2.711l-0.987,0.276c0.054-0.379-0.055-0.53-0.327-0.454
		c-0.085,0.023-0.179,0.063-0.281,0.117c-0.102,0.055-0.234,0.148-0.396,0.28c-0.163,0.132-0.414,0.371-0.754,0.718
		c-0.339,0.347-0.729,0.764-1.169,1.251c-0.439,0.486-0.894,0.995-1.363,1.525l-1.295,1.467c-0.083,0.855-0.142,1.591-0.176,2.208
		s-0.054,1.126-0.058,1.53c-0.006,0.405,0.001,0.722,0.02,0.95c0.019,0.229,0.062,0.393,0.13,0.49
		c0.067,0.098,0.148,0.158,0.241,0.18c0.094,0.021,0.212,0.012,0.354-0.027c0.254-0.071,0.527-0.239,0.823-0.504
		c0.294-0.265,0.765-0.808,1.412-1.63l0.746,0.35c-0.933,1.163-1.72,2.018-2.362,2.566c-0.644,0.549-1.332,0.925-2.066,1.131
		c-0.404,0.113-0.727,0.136-0.968,0.069c-0.241-0.067-0.42-0.231-0.538-0.493c-0.117-0.261-0.161-0.709-0.131-1.341
		c0.045-1.122,0.124-1.993,0.238-2.615l-0.142,0.04c-1.389,1.681-2.411,2.894-3.066,3.641c-0.656,0.747-1.183,1.311-1.579,1.69
		c-0.397,0.38-0.76,0.67-1.088,0.87c-0.33,0.201-0.738,0.37-1.229,0.506c-0.441,0.124-0.787,0.169-1.038,0.135l1.279-2.711
		l0.987-0.276c-0.054,0.379,0.055,0.53,0.328,0.454c0.132-0.037,0.279-0.111,0.446-0.223c0.165-0.111,0.421-0.339,0.77-0.684
		c0.348-0.344,0.842-0.87,1.481-1.578C568.208,297.764,569.145,296.708,570.378,295.306z"/>
	<path fill="#FF0000" d="M590.285,276.862l-0.197,0.706l-5.743,5.794l-0.712-0.477l4.184-5.332L590.285,276.862z"/>
</g>
<g>
	<path fill="#FF0000" d="M441.567,155.743c0.182-0.709,0.267-1.21,0.259-1.502c-0.011-0.292-0.104-0.487-0.278-0.585
		c-0.177-0.098-0.467-0.09-0.871,0.023c-0.95,0.266-1.91,0.884-2.878,1.852c-0.97,0.969-1.888,2.214-2.756,3.736
		s-1.481,2.922-1.839,4.2c-0.269,0.959-0.28,1.619-0.034,1.979c0.245,0.359,0.745,0.435,1.497,0.224
		c0.856-0.24,1.642-0.609,2.357-1.109c0.716-0.499,1.52-1.194,2.411-2.085l0.619,0.619c-1.157,1.226-2.249,2.189-3.273,2.893
		s-2.054,1.199-3.089,1.488c-1.363,0.382-2.284,0.268-2.763-0.344c-0.479-0.611-0.503-1.688-0.071-3.23
		c0.282-1.006,0.78-2.163,1.493-3.473c0.713-1.309,1.56-2.521,2.539-3.636c0.979-1.115,2.017-2.034,3.111-2.757
		c1.096-0.722,2.192-1.238,3.293-1.546c1.251-0.35,2.363-0.531,3.338-0.544l-1.584,3.381L441.567,155.743z"/>
	<path fill="#FF0000" d="M451.955,159.686c-1.095,1.216-2.087,2.166-2.975,2.848c-0.889,0.683-1.747,1.14-2.574,1.371
		c-1.966,0.55-2.67-0.167-2.114-2.151c0.176-0.63,0.441-1.315,0.796-2.056l3.715-7.787l-2.37,0.664l0.484-1.033
		c0.558-0.164,0.989-0.324,1.298-0.48c0.308-0.156,0.576-0.326,0.808-0.512c0.228-0.186,0.457-0.423,0.686-0.712
		c0.229-0.29,0.472-0.646,0.729-1.068c0.257-0.423,0.669-1.151,1.236-2.186l1.946-0.545l-1.751,3.702l4.288-1.201l-0.71,1.512
		l-4.288,1.201l-2.787,5.825c-0.543,1.131-0.912,1.938-1.107,2.423c-0.197,0.483-0.334,0.867-0.413,1.148
		c-0.326,1.167-0.005,1.614,0.964,1.343c0.413-0.116,0.897-0.396,1.45-0.842c0.554-0.445,1.257-1.139,2.109-2.079L451.955,159.686z"
		/>
	<path fill="#FF0000" d="M465.847,139.507l-0.197,0.705l-5.743,5.794l-0.712-0.477l4.184-5.332L465.847,139.507z"/>
</g>
<line fill="none" stroke="#00FF00" stroke-opacity="0.65" x1="141.376" y1="535.126" x2="591.376" y2="535.126"/>
<line fill="none" stroke="#00FF00" stroke-opacity="0.65" x1="141.376" y1="478.876" x2="591.376" y2="478.876"/>
<line fill="none" stroke="#00FF00" stroke-opacity="0.65" x1="141.376" y1="422.626" x2="591.376" y2="422.626"/>
<line fill="none" stroke="#00FF00" stroke-opacity="0.65" x1="141.376" y1="366.376" x2="591.376" y2="366.376"/>
<line fill="none" stroke="#00FF00" stroke-opacity="0.65" x1="141.376" y1="310.126" x2="591.376" y2="310.126"/>
<line fill="none" stroke="#00FF00" stroke-opacity="0.65" x1="141.376" y1="253.876" x2="591.376" y2="253.876"/>
<line fill="none" stroke="#00FF00" stroke-opacity="0.65" x1="141.376" y1="197.626" x2="591.376" y2="197.626"/>
<line fill="none" stroke="#00FF00" stroke-opacity="0.65" x1="535.126" y1="141.376" x2="535.126" y2="591.376"/>
<line fill="none" stroke="#00FF00" stroke-opacity="0.65" x1="478.876" y1="141.376" x2="478.876" y2="591.376"/>
<line fill="none" stroke="#00FF00" stroke-opacity="0.65" x1="422.626" y1="141.376" x2="422.626" y2="591.376"/>
<line fill="none" stroke="#00FF00" stroke-opacity="0.65" x1="366.376" y1="141.376" x2="366.376" y2="591.376"/>
<line fill="none" stroke="#00FF00" stroke-opacity="0.65" x1="310.126" y1="141.376" x2="310.126" y2="591.376"/>
<line fill="none" stroke="#00FF00" stroke-opacity="0.65" x1="253.876" y1="141.376" x2="253.876" y2="591.376"/>
<line fill="none" stroke="#00FF00" stroke-opacity="0.65" x1="197.626" y1="141.376" x2="197.626" y2="591.376"/>
<line fill="none" stroke="#00FF00" stroke-width="3" x1="141.376" y1="366.376" x2="591.376" y2="366.376"/>
<line fill="none" stroke="#00FF00" stroke-width="3" x1="366.376" y1="591.376" x2="366.376" y2="141.376"/>
<polyline fill="none" stroke="#00FF00" stroke-width="3" stroke-linecap="round" points="357.249,157.186 366.376,141.376 
	375.504,157.186 "/>
<polyline fill="none" stroke="#00FF00" stroke-width="3" stroke-linecap="round" points="575.567,357.248 591.376,366.376 
	575.567,375.504 "/>
<g>
	<path fill="#00FF00" d="M559.03,351.418c-0.146-0.771-0.298-1.514-0.454-2.227s-0.317-1.377-0.483-1.992s-0.303-1.018-0.41-1.208
		s-0.223-0.322-0.345-0.396s-0.275-0.11-0.461-0.11c-0.205,0-0.391,0.046-0.557,0.139s-0.347,0.254-0.542,0.483
		s-0.454,0.588-0.776,1.077l-0.952-0.63c0.615-0.928,1.206-1.621,1.772-2.08s1.235-0.688,2.007-0.688
		c0.303,0,0.568,0.034,0.798,0.103s0.433,0.173,0.608,0.315s0.332,0.325,0.469,0.549s0.269,0.53,0.396,0.916
		s0.246,0.864,0.359,1.436c0.111,0.571,0.212,1.165,0.3,1.78h0.146c0.938-1.318,1.647-2.283,2.132-2.893
		c0.482-0.61,0.891-1.064,1.223-1.362s0.652-0.508,0.959-0.63c0.309-0.122,0.716-0.183,1.224-0.183c0.459,0,0.835,0.059,1.128,0.176
		l-0.586,2.651h-1.025c-0.059-0.41-0.229-0.615-0.513-0.615c-0.088,0-0.181,0.015-0.278,0.044s-0.218,0.093-0.359,0.19
		s-0.349,0.288-0.622,0.571s-0.581,0.63-0.923,1.04s-0.693,0.84-1.055,1.289l-0.996,1.245c0.176,0.938,0.342,1.748,0.498,2.432
		s0.295,1.252,0.418,1.707c0.121,0.454,0.229,0.813,0.322,1.077c0.092,0.264,0.192,0.461,0.3,0.593s0.217,0.225,0.329,0.278
		s0.242,0.081,0.389,0.081c0.264,0,0.52-0.103,0.77-0.308c0.248-0.205,0.607-0.669,1.076-1.392l0.952,0.63
		c-0.684,1.016-1.302,1.731-1.853,2.146c-0.553,0.415-1.209,0.623-1.971,0.623c-0.42,0-0.776-0.076-1.069-0.227
		s-0.547-0.393-0.762-0.725s-0.405-0.85-0.571-1.553c-0.303-1.25-0.488-2.207-0.557-2.871h-0.146
		c-1.035,1.455-1.805,2.5-2.307,3.135c-0.504,0.635-0.919,1.104-1.246,1.406s-0.645,0.515-0.951,0.637
		c-0.309,0.122-0.716,0.183-1.224,0.183c-0.459,0-0.835-0.059-1.128-0.176l0.586-2.651h1.025c0.059,0.41,0.229,0.615,0.513,0.615
		c0.137,0,0.28-0.037,0.433-0.11c0.15-0.073,0.368-0.249,0.651-0.527s0.674-0.715,1.172-1.311S558.083,352.61,559.03,351.418z"/>
</g>
<g>
	<path fill="#00FF00" d="M384.158,168.136c-0.02-0.742-0.081-1.279-0.183-1.611c-0.104-0.332-0.27-0.581-0.498-0.747
		c-0.23-0.166-0.555-0.249-0.975-0.249c-0.986,0-1.873,0.393-2.658,1.179c-0.787,0.786-1.429,1.899-1.927,3.34
		s-0.747,2.825-0.747,4.153c0,0.996,0.195,1.736,0.586,2.219s0.977,0.725,1.758,0.725c0.889,0,1.657-0.168,2.307-0.505
		s1.336-0.867,2.059-1.589l0.894,0.894c-0.918,1.016-1.844,1.758-2.776,2.227s-1.936,0.703-3.01,0.703
		c-1.416,0-2.49-0.42-3.223-1.26s-1.099-2.061-1.099-3.662c0-1.045,0.195-2.192,0.586-3.442s0.962-2.349,1.714-3.296
		s1.631-1.655,2.637-2.124s2.08-0.703,3.223-0.703c1.299,0,2.495,0.146,3.589,0.439l-0.718,3.311H384.158z"/>
	<path fill="#00FF00" d="M397.107,175.856c-0.85,1.025-1.668,1.782-2.454,2.271s-1.608,0.732-2.468,0.732
		c-2.041,0-3.062-1.03-3.062-3.091c0-0.654,0.083-1.343,0.249-2.065l1.729-7.603h-2.461l0.22-1.011
		c0.576-0.01,1.013-0.054,1.311-0.132s0.547-0.186,0.748-0.322c0.199-0.137,0.383-0.332,0.549-0.586s0.327-0.579,0.483-0.974
		s0.391-1.086,0.703-2.073h2.021l-0.806,3.618h4.453L398,166.1h-4.453l-1.304,5.684c-0.254,1.104-0.415,1.897-0.483,2.38
		s-0.103,0.872-0.103,1.165c0,1.211,0.503,1.816,1.509,1.816c0.43,0,0.887-0.164,1.369-0.491c0.484-0.327,1.058-0.886,1.722-1.677
		L397.107,175.856z"/>
</g>
<polygon fill="#FFFFFF" fill-opacity="0.25" points="85.126,647.626 647.626,647.626 85.126,85.126 647.626,85.126 "/>
<line fill="none" stroke="#0000FF" stroke-width="2.5" x1="188.322" y1="346.913" x2="263.181" y2="385.839"/>
<line fill="none" stroke="#FF0000" stroke-width="2.5" x1="185.126" y1="377.751" x2="266.376" y2="355.001"/>
<line fill="none" stroke="#0000FF" stroke-width="2.5" x1="226.671" y1="368.145" x2="173.635" y2="266.151"/>
<polyline fill="none" stroke="#0000FF" stroke-width="2.5" stroke-linecap="round" points="172.839,275.865 173.635,266.151 
	188.868,284.2 "/>
<line fill="none" stroke="#FF0000" stroke-width="2.5" x1="213.789" y1="409.101" x2="225.752" y2="366.376"/>
<polyline fill="none" stroke="#FF0000" stroke-width="2.5" stroke-linecap="round" points="211.936,392.247 222.526,377.898 
	226.199,388.253 "/>
<circle fill="#FFFFFF" cx="366.376" cy="366.376" r="12"/>
<g>
	<path d="M368.228,373.376v-0.574c0.391-0.078,0.682-0.164,0.873-0.258s0.334-0.225,0.428-0.393s0.141-0.393,0.141-0.674
		c0-0.266-0.031-0.553-0.094-0.861s-0.152-0.654-0.27-1.037l-0.434-1.512h-5.461l-0.398,1.148c-0.203,0.578-0.336,1.016-0.398,1.313
		s-0.094,0.566-0.094,0.809c0,0.469,0.119,0.813,0.357,1.031s0.604,0.363,1.096,0.434v0.574h-5.004v-0.574
		c0.438-0.07,0.818-0.324,1.143-0.762s0.639-1.063,0.943-1.875l4.887-12.973h1.852l3.984,13.066
		c0.188,0.609,0.354,1.074,0.498,1.395s0.318,0.57,0.521,0.75s0.48,0.313,0.832,0.398v0.574H368.228z M363.728,367.048h4.898
		l-2.227-7.559L363.728,367.048z"/>
</g>
<circle fill="#FFFFFF" cx="225.876" cy="366.376" r="12"/>
<g>
	<path d="M220.458,373.876v-0.574c0.484-0.125,0.809-0.264,0.973-0.416s0.271-0.369,0.322-0.65s0.076-0.711,0.076-1.289V360.81
		c0-0.539-0.02-0.932-0.059-1.178s-0.104-0.438-0.193-0.574s-0.209-0.246-0.357-0.328s-0.402-0.174-0.762-0.275v-0.574h6.41
		c1.242,0,2.24,0.133,2.994,0.398s1.314,0.658,1.682,1.178s0.551,1.189,0.551,2.01c0,0.68-0.131,1.27-0.393,1.77
		s-0.604,0.914-1.025,1.242s-0.965,0.633-1.629,0.914v0.105c1.063,0.32,1.867,0.814,2.414,1.482s0.82,1.463,0.82,2.385
		c0,1.063-0.236,1.93-0.709,2.602s-1.135,1.158-1.986,1.459s-1.883,0.451-3.094,0.451H220.458z M226.072,365.052
		c1.188,0,2.096-0.287,2.725-0.861s0.943-1.408,0.943-2.502c0-0.539-0.088-0.986-0.264-1.342s-0.418-0.639-0.727-0.85
		s-0.674-0.361-1.096-0.451s-0.879-0.135-1.371-0.135c-0.297,0-0.688,0.008-1.172,0.023s-0.848,0.031-1.09,0.047v6.07H226.072z
		 M224.021,372.763c0.57,0.055,1.207,0.082,1.91,0.082c1.023,0,1.818-0.129,2.385-0.387s0.977-0.639,1.23-1.143
		s0.381-1.135,0.381-1.893s-0.139-1.383-0.416-1.875s-0.705-0.859-1.283-1.102s-1.375-0.363-2.391-0.363h-1.816V372.763z"/>
</g>
</svg>
